<svg xmlns="http://www.w3.org/2000/svg" baseProfile="tiny" viewBox="0 0 217.5 245.6"><path fill="#492E1B" d="M155.1 66.1c1.9 33.1 4.4 49.7 6.7 58.7.3 1.2 1.1 4.3 1.1 8.5.1 13.5-7.8 23.6-9.8 26.2-16.4 21.1-49.3 18.9-51.6 18.7-24.3-2-45.1-17.2-49.6-29.8-3.1-8.8-2.8-18.2-2.8-18.2.1-3.8.7-6.7.9-7.6 1.3-6.9 3.3-21.8 6.3-54.9v-1.6c.7-19.8 18.4-51.6 49.4-51.6 26.3 0 49.5 22.9 49.4 51.6z"/><path fill="none" stroke="#F4C8A8" stroke-width="25" stroke-miterlimit="10" d="M141.4 140.9c-3.1 21.4-5.4 55.5 4.1 95.5 7.2 30.4 18.9 54.1 28.5 70.4" stroke-linecap="round"/><path fill="#F4C8A8" d="M145.8 140.6c-.5 3.8-1 7.7-1.3 11.7H71.7c-.3-4-.6-7.9-1-11.7 0-.8.1-5.1 2.7-8.6 1.7-2.2 4-3.6 6.5-3.6h56.7c5.1 0 9.2 5.5 9.2 12.2z"/><path fill="#AEC6D1" d="M144.4 307.9c-.7 5.2-1.8 12.8-6.4 19.5-4.8 6.9-10.8 8.9-12.7 9.5-2 .6-4 .9-6.1.9H97.4c-7.3 0-14-4-18.8-10.4-.8-1.1-7.3-9.9-7.7-22.2 0-.7 0-2.4.2-5.7.3-9.6.9-16.5 1.1-19.8 0 0 .2-5.5.8-23.7 1.5-37.7 1-72.5-1.3-103.7h72.7c-2.9 28.5-3.5 62.2-1.7 99.7.7 13.9 1.1 27.7 2.1 41.6.2 2 .6 7.4-.4 14.3z"/><path fill="#EAB28C" d="M106.4 139.7c-5.5 0-10-3.7-10-8.3v-34c0-4.6 4.5-8.3 10-8.3s10 3.7 10 8.3v33.9c0 4.6-4.5 8.4-10 8.4z"/><ellipse cx="106.7" cy="75.1" fill="#F4C8A8" rx="38.6" ry="42.6"/><ellipse cx="106.3" cy="101.4" fill="#231F20" stroke="#CC7D88" stroke-width="3" stroke-miterlimit="10" rx="4.3" ry="5.4"/><path fill="none" stroke="#F4C8A8" stroke-width="25" stroke-miterlimit="10" d="M75.2 140.9c-8.4 21.2-17.9 52.5-19.8 91.4-1.3 27.1 1.5 50.5 5.1 68.5" stroke-linecap="round"/><ellipse cx="122.5" cy="70.1" fill="#FFF" rx="9.1" ry="9.1"/><ellipse cx="89.8" cy="70.1" fill="#FFF" rx="9.1" ry="9.1"/><circle cx="89.7" cy="70.1" r="4.7" fill="#396730"/><g><circle cx="122.5" cy="70.1" r="4.7" fill="#396730"/></g><g><path fill="#5B3A25" d="M139.5 59c-3.1 0-6-1.8-7.2-4.9-.5-1.3-1.1-2.5-1.8-3.7-5.2-8.8-14.4-14.6-23.9-15.1-9.5-.5-19.3 4.4-25 12.4-.4.6-1.4 1.9-2.3 5.5-1.1 4.1-5.3 6.6-9.4 5.5-4.1-1.1-6.6-5.3-5.5-9.4 1.4-5.6 3.2-8.6 4.6-10.5 8.8-12.4 23.5-19.7 38.4-18.9 14.6.8 28.6 9.5 36.4 22.7 1.1 1.9 2.1 3.8 2.9 5.8 1.6 4-.3 8.4-4.3 10-1 .4-2 .6-2.9.6z"/></g><g><g fill="#5B3A25"><path d="M139.5 51.3c3.2 8.1 3.2 17.2 2.7 32.5-.6 18.6-1.5 40.5-3.1 65.2"/><path d="M139.1 156.7h-.5c-4.3-.3-7.5-3.9-7.2-8.2 1.4-21.6 2.4-43.4 3.1-64.9.4-14.3.5-22.7-2.1-29.4-1.6-4 .3-8.5 4.3-10 4-1.6 8.4.3 10 4.3 3.8 9.6 3.7 19.7 3.2 35.6-.6 21.7-1.7 43.7-3.1 65.4-.3 4-3.7 7.2-7.7 7.2z"/></g></g><g><path fill="#5B3A25" d="M76.7 158.8c-3.7 0-7-2.7-7.6-6.4-2.2-13.3-4-26.9-5.3-40.5-2.8-29-2.6-50.1.6-62.5 1.1-4.1 5.3-6.6 9.4-5.5 4.1 1.1 6.6 5.3 5.5 9.4-1.9 7.3-3.5 23.2-.2 57.2 1.3 13.2 3 26.5 5.2 39.4.7 4.2-2.1 8.2-6.3 8.9-.5-.1-.9 0-1.3 0z"/></g></svg>