<?xml version="1.0" encoding="utf-8"?>
<!-- Generator: Adobe Illustrator 21.1.0, SVG Export Plug-In . SVG Version: 6.00 Build 0)  -->
<svg version="1.1" id="Layer_1" xmlns="http://www.w3.org/2000/svg" xmlns:xlink="http://www.w3.org/1999/xlink" x="0px" y="0px"
	 viewBox="0 0 144 144" style="enable-background:new 0 0 144 144;" xml:space="preserve">
<style type="text/css">
	.st0{fill:#492E1B;}
	.st1{fill:#F4C8A8;}
	.st2{fill:#AEC6D1;}
	.st3{fill:#EAB28C;}
	.st4{fill:#231F20;}
	.st5{fill:#CC7D88;}
	.st6{fill:#FFFFFF;}
	.st7{fill:#396730;}
	.st8{fill:#5B3A25;}
</style>
<path class="st0" d="M102.9,39.2c1.1,19.9,2.6,29.8,4,35.2c0.2,0.7,0.7,2.6,0.7,5.1c0.1,8.1-4.7,14.2-5.9,15.7
	c-9.8,12.7-29.6,11.3-31,11.2C56.1,105.3,43.7,96.2,41,88.6c-1.9-5.3-1.7-10.9-1.7-10.9c0.1-2.3,0.4-4,0.5-4.6
	c0.8-4.1,2-13.1,3.8-32.9v-1c0.4-11.9,11-31,29.6-31C89,8.3,103,22,102.9,39.2z"/>
<path class="st1" d="M114.3,191.2c-2.6,0-5.1-1.3-6.5-3.7c-8.3-14-14.3-28.9-17.9-44.3c-4.7-19.6-5.5-39.8-2.6-60.1
	c0.6-4.1,4.4-6.9,8.5-6.3c4.1,0.6,6.9,4.4,6.3,8.5c-2.7,18.4-1.9,36.8,2.3,54.5c3.3,13.9,8.8,27.4,16.3,40.2
	c2.1,3.6,0.9,8.2-2.7,10.3C116.9,190.9,115.5,191.2,114.3,191.2z"/>
<path class="st1" d="M97.3,83.9c-0.3,2.3-0.6,4.6-0.8,7H52.8c-0.2-2.4-0.4-4.7-0.6-7c0-0.5,0.1-3.1,1.6-5.2c1-1.3,2.4-2.2,3.9-2.2
	h34C94.9,76.6,97.3,79.9,97.3,83.9L97.3,83.9z"/>
<path class="st2" d="M96.5,184.3c-0.4,3.1-1.1,7.7-3.8,11.7c-2.9,4.1-6.5,5.3-7.6,5.7c-1.2,0.4-2.4,0.5-3.7,0.5H68.3
	c-4.4,0-8.4-2.4-11.3-6.2c-0.5-0.7-4.4-5.9-4.6-13.3c0-0.4,0-1.4,0.1-3.4c0.2-5.8,0.5-9.9,0.7-11.9c0,0,0.1-3.3,0.5-14.2
	c0.9-22.6,0.6-43.5-0.8-62.2h43.6c-1.7,17.1-2.1,37.3-1,59.8c0.4,8.3,0.7,16.6,1.3,25C96.8,177,97.1,180.2,96.5,184.3L96.5,184.3z"
	/>
<path class="st3" d="M73.7,83.4c-3.3,0-6-2.2-6-5V58c0-2.8,2.7-5,6-5s6,2.2,6,5v20.3C79.7,81.1,77,83.4,73.7,83.4L73.7,83.4z"/>
<ellipse class="st1" cx="73.9" cy="44.6" rx="23.2" ry="25.6"/>
<g>
	<ellipse class="st4" cx="73.6" cy="60.4" rx="2.6" ry="3.2"/>
	<path class="st5" d="M73.6,64.6c-1.9,0-3.5-1.9-3.5-4.1s1.6-4.1,3.5-4.1s3.5,1.9,3.5,4.1S75.5,64.6,73.6,64.6z M73.6,58.1
		c-0.9,0-1.7,1.1-1.7,2.3s0.8,2.3,1.7,2.3s1.7-1.1,1.7-2.3S74.5,58.1,73.6,58.1z"/>
</g>
<path class="st1" d="M46.1,187.6c-3.5,0-6.6-2.5-7.3-6c-2.8-14.1-3.9-28.5-3.2-42.9c1-19.7,5.1-38.9,12.4-57.3
	c1.5-3.9,5.9-5.7,9.7-4.2c3.9,1.5,5.7,5.9,4.2,9.7c-6.7,16.8-10.5,34.5-11.4,52.5c-0.6,13.2,0.4,26.4,2.9,39.3
	c0.8,4.1-1.8,8-5.9,8.8C47.1,187.5,46.6,187.6,46.1,187.6z"/>
<ellipse class="st6" cx="83.3" cy="41.6" rx="5.5" ry="5.5"/>
<ellipse class="st6" cx="63.7" cy="41.6" rx="5.5" ry="5.5"/>
<circle class="st7" cx="63.6" cy="41.6" r="2.8"/>
<g>
	<circle class="st7" cx="83.3" cy="41.6" r="2.8"/>
</g>
<g>
	<path class="st8" d="M93.5,35c-1.9,0-3.6-1.1-4.3-2.9c-0.3-0.8-0.7-1.5-1.1-2.2c-3.1-5.3-8.6-8.8-14.3-9.1
		c-5.7-0.3-11.6,2.6-15,7.4c-0.2,0.4-0.8,1.1-1.4,3.3c-0.7,2.5-3.2,4-5.6,3.3c-2.5-0.7-4-3.2-3.3-5.6c0.8-3.4,1.9-5.2,2.8-6.3
		c5.3-7.4,14.1-11.8,23-11.3C83,12,91.4,17.2,96.1,25.1c0.7,1.1,1.3,2.3,1.7,3.5c1,2.4-0.2,5-2.6,6C94.7,34.8,94.1,35,93.5,35
		L93.5,35z"/>
</g>
<g>
	<g>
		<path class="st8" d="M93.5,30.3c1.9,4.9,1.9,10.3,1.6,19.5C94.8,61,94.3,74.2,93.3,89"/>
		<path class="st8" d="M93.3,93.6H93c-2.6-0.2-4.5-2.3-4.3-4.9c0.8-13,1.4-26,1.9-39c0.2-8.6,0.3-13.6-1.3-17.6
			c-1-2.4,0.2-5.1,2.6-6c2.4-1,5,0.2,6,2.6c2.3,5.8,2.2,11.8,1.9,21.4c-0.4,13-1,26.2-1.9,39.3C97.7,91.7,95.7,93.6,93.3,93.6z"/>
	</g>
</g>
<g>
	<path class="st8" d="M55.8,94.9c-2.2,0-4.2-1.6-4.6-3.8c-1.3-8-2.4-16.1-3.2-24.3c-1.7-17.4-1.6-30.1,0.4-37.5
		c0.7-2.5,3.2-4,5.6-3.3s4,3.2,3.3,5.6c-1.1,4.4-2.1,13.9-0.1,34.3c0.8,7.9,1.8,15.9,3.1,23.6c0.4,2.5-1.3,4.9-3.8,5.3
		C56.3,94.8,56.1,94.9,55.8,94.9L55.8,94.9z"/>
</g>
</svg>
