<svg id="Layer_1" data-name="Layer 1" xmlns="http://www.w3.org/2000/svg" width="2in" height="2in" viewBox="0 0 144 144"><title>Artboard 1</title><path d="M102.9,39.2c1.1,19.9,2.6,29.8,4,35.2a20.2,20.2,0,0,1,.7,5.1c.1,8.1-4.7,14.2-5.9,15.7-9.8,12.7-29.6,11.3-31,11.2C56.1,105.3,43.7,96.2,41,88.6a34.1,34.1,0,0,1-1.7-10.9,24.6,24.6,0,0,1,.5-4.6c.8-4.1,2-13.1,3.8-32.9v-1c.4-11.9,11-31,29.6-31C89,8.3,103,22,102.9,39.2Z" fill="#492e1b"/><path d="M114.3,191.2a7.5,7.5,0,0,1-6.5-3.7A158.9,158.9,0,0,1,87.3,83a7.5,7.5,0,0,1,14.8,2.2,143.9,143.9,0,0,0,18.6,94.7,7.5,7.5,0,0,1-6.5,11.3Z" fill="#f4c8a8"/><path d="M97.3,83.9c-.3,2.3-.6,4.6-.8,7H52.8c-.2-2.4-.4-4.7-.6-7a9.2,9.2,0,0,1,1.6-5.2,5,5,0,0,1,3.9-2.2h34c3.1,0,5.5,3.3,5.5,7.3Z" fill="#f4c8a8"/><path d="M96.5,184.3c-.4,3.1-1.1,7.7-3.8,11.7a14.4,14.4,0,0,1-7.6,5.7,12.6,12.6,0,0,1-3.7.5H68.3c-4.4,0-8.4-2.4-11.3-6.2a24.8,24.8,0,0,1-4.6-13.3c0-.4,0-1.4.1-3.4.2-5.8.5-9.9.7-11.9,0,0,.1-3.3.5-14.2A553.6,553.6,0,0,0,52.8,91H96.5c-1.7,17.1-2.1,37.3-1,59.8.4,8.3.7,16.6,1.3,25a36.1,36.1,0,0,1-.2,8.6Z" fill="#aec6d1"/><path d="M73.7,83.4c-3.3,0-6-2.2-6-5V58c0-2.8,2.7-5,6-5s6,2.2,6,5V78.4c0,2.8-2.7,5-6,5Z" fill="#eab28c"/><ellipse cx="73.9" cy="44.6" rx="23.2" ry="25.6" fill="#f4c8a8"/><ellipse cx="73.6" cy="60.4" rx="2.6" ry="3.2" fill="#231f20"/><path d="M73.6,64.6c-1.9,0-3.5-1.9-3.5-4.1s1.6-4.1,3.5-4.1,3.5,1.9,3.5,4.1S75.5,64.6,73.6,64.6Zm0-6.5c-.9,0-1.7,1.1-1.7,2.3s.8,2.3,1.7,2.3,1.7-1.1,1.7-2.3S74.5,58.1,73.6,58.1Z" fill="#cc7d88"/><path d="M46.1,187.6a7.5,7.5,0,0,1-7.3-6,176.1,176.1,0,0,1-3.2-42.9A178.8,178.8,0,0,1,48,81.4a7.5,7.5,0,1,1,13.9,5.5,163.8,163.8,0,0,0-11.4,52.5,161.1,161.1,0,0,0,2.9,39.3,7.5,7.5,0,0,1-5.9,8.8Z" fill="#f4c8a8"/><circle cx="83.3" cy="41.6" r="5.5" fill="#fff"/><circle cx="63.7" cy="41.6" r="5.5" fill="#fff"/><circle cx="63.6" cy="41.6" r="2.8" fill="#396730"/><circle cx="83.3" cy="41.6" r="2.8" fill="#396730"/><path d="M93.5,35A4.6,4.6,0,0,1,89.2,32a15.2,15.2,0,0,0-1.1-2.2,18.2,18.2,0,0,0-14.3-9.1,17.8,17.8,0,0,0-15,7.4,8.9,8.9,0,0,0-1.4,3.3,4.6,4.6,0,0,1-8.9-2.3,17,17,0,0,1,2.8-6.3,26.8,26.8,0,0,1,23-11.3A27.7,27.7,0,0,1,96.1,25.1a26.9,26.9,0,0,1,1.7,3.5,4.6,4.6,0,0,1-2.6,6,4.8,4.8,0,0,1-1.7.4Z" fill="#5b3a25"/><path d="M93.5,30.3c1.9,4.9,1.9,10.3,1.6,19.5C94.8,61,94.3,74.2,93.3,89" fill="#5b3a25"/><path d="M93.3,93.6H93a4.6,4.6,0,0,1-4.3-4.9c.8-13,1.4-26,1.9-39,.2-8.6.3-13.6-1.3-17.6a4.6,4.6,0,0,1,8.6-3.4c2.3,5.8,2.2,11.8,1.9,21.4-.4,13-1,26.2-1.9,39.3A4.7,4.7,0,0,1,93.3,93.6Z" fill="#5b3a25"/><path d="M55.8,94.9A4.6,4.6,0,0,1,51.3,91c-1.3-8-2.4-16.1-3.2-24.3-1.7-17.4-1.6-30.1.4-37.5a4.6,4.6,0,1,1,8.9,2.3c-1.1,4.4-2.1,13.9-.1,34.3.8,7.9,1.8,15.9,3.1,23.6a4.6,4.6,0,0,1-3.8,5.3h-.8Z" fill="#5b3a25"/></svg>